# xmcd
#
# Track frame offsets:
#	150
#	4201
#	36094
#	59842
#	84526
#	113165
#	142827
#	178662
#	206584
#	232915
#	261789
#	286200
#	318176
#
# Disc length: 4673 seconds
#
# Revision: 1
# Processed by: cddbd v1.5.2PL0 Copyright (c) Steve Scherf et al.
# Submitted via: audiograbber 1.83.01
#
DISCID=b0123f0d
DTITLE=Various Artist - D.Techno 17
DYEAR=2007
DGENRE=Hardstyle
TTITLE0=Gary D. - Intro
TTITLE1=DJ Isaac - Impressed
TTITLE2=Donkey Rollers - The Fusion Of Sound (Original Mix)
TTITLE3=The Prophet feat. Headhunterz - High Rollerz
TTITLE4=Tatanka - Mess Up
TTITLE5=Brennan Heart aka Blademasterz - One Blade
TTITLE6=Zatox and Activator - Don't Let It Go (Baco Mix)
TTITLE7=A-Drive - Sex, Drugs and House
TTITLE8=DJ Tony - The Unknown
TTITLE9=Tuneboy - Wackyjackie (Technoboy RMX)
TTITLE10=Noisecontrollers - Creatures (Original Mix)
TTITLE11=Xavi and Calypso - The Unforgetable
TTITLE12=Evil Z - The End Of Time (Mind Hunterz RMX)
EXTD=
EXTT0=
EXTT1=
EXTT2=
EXTT3=
EXTT4=
EXTT5=
EXTT6=
EXTT7=
EXTT8=
EXTT9=
EXTT10=
EXTT11=
EXTT12=
PLAYORDER=
